<?xml version="1.0" encoding="UTF-8"?>
<svg width="179px" height="26px" viewBox="0 0 179 26" version="1.1" xmlns="http://www.w3.org/2000/svg" xmlns:xlink="http://www.w3.org/1999/xlink">
    <title>/Web svg/3839_Master</title>
    <defs>
        <linearGradient x1="50.0002987%" y1="0%" x2="50.0002987%" y2="100%" id="linearGradient-1">
            <stop stop-color="#FF0000" offset="40%"></stop>
            <stop stop-color="#D42321" offset="100%"></stop>
        </linearGradient>
        <linearGradient x1="50.1747008%" y1="51.0390658%" x2="49.6080092%" y2="48.2559491%" id="linearGradient-2">
            <stop stop-color="#FFFFFF" offset="0%"></stop>
            <stop stop-color="#FFFFFF" stop-opacity="0.25" offset="100%"></stop>
        </linearGradient>
        <linearGradient x1="50%" y1="-0.00471050315%" x2="50%" y2="99.9992713%" id="linearGradient-3">
            <stop stop-color="#002A91" offset="0%"></stop>
            <stop stop-color="#002672" offset="80%"></stop>
        </linearGradient>
        <linearGradient x1="50.47962%" y1="55.5368388%" x2="49.6715602%" y2="45.7086143%" id="linearGradient-4">
            <stop stop-color="#FFFFFF" offset="0%"></stop>
            <stop stop-color="#FFFFFF" stop-opacity="0.25" offset="100%"></stop>
        </linearGradient>
    </defs>
    <g id="3839_Master" stroke="none" stroke-width="1" fill="none" fill-rule="evenodd">
        <g id="Group" fill-rule="nonzero">
            <g id="Sky_Sports_Darts_PRIMARY_RGB">
                <g id="XMLID_262_" transform="translate(118.000000, 0.000000)" fill="#FFFFFF">
                    <path d="M59.1396085,26 L1.74967972,26 C0.792348754,26 0.0151957295,25.2243333 0.0151957295,24.2688333 L0.0151957295,1.73116667 C0.0151957295,0.775666667 0.792348754,0 1.74967972,0 L59.1396085,0 C60.0969395,0 60.8740925,0.775666667 60.8740925,1.73116667 L60.8740925,24.2666667 C60.8740925,25.2243333 60.0991103,26 59.1396085,26 Z" id="Path"></path>
                </g>
                <g id="Group" transform="translate(127.000000, 4.000000)" fill="#002A91">
                    <g>
                        <path d="M10.1342396,0.150769231 L10.1342396,13.7587692 C9.98695853,13.8212308 9.64691244,13.8858462 9.35235023,13.8858462 C8.65493088,13.8858462 8.42101382,13.6123077 8.42101382,13.0867692 L8.42101382,12.2446154 C7.65861751,13.2763077 6.43271889,13.9913846 4.91009217,13.9913846 C2.33050691,13.9913846 0.0238248848,12.0356923 0.0238248848,8.73384615 C0.0238248848,5.45353846 2.32834101,3.49569231 4.91009217,3.49569231 C6.43271889,3.49569231 7.66078341,4.21076923 8.42101382,5.24246154 L8.42101382,0.719384615 C8.42101382,0.318769231 8.67442396,0.0667692308 9.37184332,0.0667692308 C9.66857143,0.0667692308 9.98479263,0.107692308 10.1342396,0.150769231 Z M8.42101382,10.5624615 L8.42101382,6.92246154 C7.84921659,5.78738462 6.60165899,5.00769231 5.22631336,5.00769231 C3.23801843,5.00769231 1.77820276,6.52184615 1.77820276,8.73169231 C1.77820276,10.9609231 3.23801843,12.4750769 5.22631336,12.4750769 C6.60165899,12.4750769 7.84921659,11.6975385 8.42101382,10.5624615 Z" id="Shape"></path>
                        <path d="M20.9875576,7.32307692 L20.9875576,13.8018462 C20.8186175,13.8449231 20.5002304,13.8858462 20.2056682,13.8858462 C19.5710599,13.8858462 19.2743318,13.6553846 19.2743318,13.2332308 L19.2743318,12.3501538 C18.3646544,13.3818462 17.1799078,13.9913846 15.6789401,13.9913846 C13.415576,13.9913846 12.1680184,12.5181538 12.1680184,10.92 C12.1680184,8.47969231 14.7909217,7.40707692 19.2526728,7.70215385 L19.2526728,7.34461538 C19.2526728,5.684 18.7458525,4.98830769 16.8203687,4.98830769 C16.0168203,4.98830769 14.9382028,5.21876923 14.3664055,5.36738462 C14.0285253,5.45138462 13.7751152,5.53538462 13.5628571,5.53538462 C13.07553,5.53538462 12.7593088,5.11538462 12.9282488,4.23230769 C13.9657143,3.85323077 15.466682,3.49568969 16.9048387,3.49568969 C19.8872811,3.49353846 20.9875576,4.82030769 20.9875576,7.32307692 Z M19.2526728,10.8553846 L19.2526728,8.94061538 C16.3330415,8.72953846 13.9007373,9.10861538 13.9007373,10.8553846 C13.9007373,11.7384615 14.6414747,12.5375436 15.9735023,12.5375436 C17.3293548,12.5396923 18.5119355,11.8655385 19.2526728,10.8553846 Z" id="Shape"></path>
                        <path d="M29.8699078,4.44123077 C29.8699078,5.13476923 29.5731797,5.28338462 28.8541014,5.28338462 C27.3942857,5.28338462 26.1683871,5.95538462 25.4059908,7.53415385 L25.4059908,13.2332308 C25.4059908,13.6532308 25.1742396,13.8858462 24.4746544,13.8858462 C24.1779263,13.8858462 23.8400461,13.8427692 23.671106,13.8018462 L23.671106,3.68307692 C23.8400461,3.64 24.1779263,3.59907692 24.4746544,3.59907692 C25.1720737,3.59907692 25.4059908,3.85107692 25.4059908,4.25169231 L25.4059908,5.66030769 C26.4001382,4.16769231 27.901106,3.40953846 29.7832719,3.66153846 C29.8070968,3.81015385 29.8699078,4.12461538 29.8699078,4.44123077 Z" id="Path"></path>
                        <path d="M37.4765438,13.2956923 C36.5885253,13.7156923 35.5727189,13.9892308 34.5569124,13.9892308 C32.5469585,13.9892308 31.3427189,12.8110769 31.3427189,10.8553846 L31.3427189,2.16892308 C31.3427189,1.72738462 31.596129,1.43230769 32.2740553,1.43230769 C32.5707834,1.43230769 32.9086636,1.49476923 33.0776037,1.53784615 L33.0776037,3.72615385 L37.0325346,3.72615385 C37.0541935,3.87261538 37.0953456,4.16769231 37.0953456,4.41969231 C37.0953456,5.02923077 36.8419355,5.24030769 36.4607373,5.24030769 L33.0776037,5.24030769 L33.0776037,10.7304615 C33.0776037,11.9086154 33.6277419,12.4772308 34.7475115,12.4772308 C35.763318,12.4772308 36.3329493,12.0356923 36.8202765,12.0356923 C37.3292627,12.0335385 37.5826728,12.4556923 37.4765438,13.2956923 Z" id="Path"></path>
                        <path d="M38.860553,13.2956923 C38.732765,12.4126154 39.0078341,11.9495385 39.5168203,11.9495385 C40.0041475,11.9495385 41.1867281,12.4750769 42.8371429,12.4750769 C44.5720276,12.4750769 45.2282949,11.8655385 45.2282949,11.0664615 C45.2282949,10.4978462 44.9748848,9.99384615 43.4089401,9.57384615 L41.6112442,9.08923077 C39.6229493,8.56369231 38.8410599,7.57507692 38.8410599,6.35384615 C38.8410599,4.83969231 40.0474654,3.49353846 42.7743318,3.49353846 C44.0002304,3.49353846 45.525023,3.76707692 46.4541935,4.12461538 C46.6231336,4.98615385 46.3480645,5.44923077 45.8195853,5.44923077 C45.3539171,5.44923077 44.2969585,5.00769231 42.7959908,5.00769231 C41.188894,5.00769231 40.5954378,5.55476923 40.5954378,6.26984615 C40.5954378,6.77384615 40.8271889,7.23692308 42.2653456,7.63753846 L44.1063594,8.14153846 C46.1574654,8.71015385 46.9826728,9.65569231 46.9826728,11.0018462 C46.9826728,12.5784615 45.7567742,13.9892308 42.7938249,13.9892308 C41.4812903,13.9892308 39.8525346,13.6747692 38.860553,13.2956923 Z" id="Path"></path>
                    </g>
                    <g>
                        <path d="M10.1342396,0.150769231 L10.1342396,13.7587692 C9.98695853,13.8212308 9.64691244,13.8858462 9.35235023,13.8858462 C8.65493088,13.8858462 8.42101382,13.6123077 8.42101382,13.0867692 L8.42101382,12.2446154 C7.65861751,13.2763077 6.43271889,13.9913846 4.91009217,13.9913846 C2.33050691,13.9913846 0.0238248848,12.0356923 0.0238248848,8.73384615 C0.0238248848,5.45353846 2.32834101,3.49569231 4.91009217,3.49569231 C6.43271889,3.49569231 7.66078341,4.21076923 8.42101382,5.24246154 L8.42101382,0.719384615 C8.42101382,0.318769231 8.67442396,0.0667692308 9.37184332,0.0667692308 C9.66857143,0.0667692308 9.98479263,0.107692308 10.1342396,0.150769231 Z M8.42101382,10.5624615 L8.42101382,6.92246154 C7.84921659,5.78738462 6.60165899,5.00769231 5.22631336,5.00769231 C3.23801843,5.00769231 1.77820276,6.52184615 1.77820276,8.73169231 C1.77820276,10.9609231 3.23801843,12.4750769 5.22631336,12.4750769 C6.60165899,12.4750769 7.84921659,11.6975385 8.42101382,10.5624615 Z" id="Shape"></path>
                        <path d="M20.9875576,7.32307692 L20.9875576,13.8018462 C20.8186175,13.8449231 20.5002304,13.8858462 20.2056682,13.8858462 C19.5710599,13.8858462 19.2743318,13.6553846 19.2743318,13.2332308 L19.2743318,12.3501538 C18.3646544,13.3818462 17.1799078,13.9913846 15.6789401,13.9913846 C13.415576,13.9913846 12.1680184,12.5181538 12.1680184,10.92 C12.1680184,8.47969231 14.7909217,7.40707692 19.2526728,7.70215385 L19.2526728,7.34461538 C19.2526728,5.684 18.7458525,4.98830769 16.8203687,4.98830769 C16.0168203,4.98830769 14.9382028,5.21876923 14.3664055,5.36738462 C14.0285253,5.45138462 13.7751152,5.53538462 13.5628571,5.53538462 C13.07553,5.53538462 12.7593088,5.11538462 12.9282488,4.23230769 C13.9657143,3.85323077 15.466682,3.49568969 16.9048387,3.49568969 C19.8872811,3.49353846 20.9875576,4.82030769 20.9875576,7.32307692 Z M19.2526728,10.8553846 L19.2526728,8.94061538 C16.3330415,8.72953846 13.9007373,9.10861538 13.9007373,10.8553846 C13.9007373,11.7384615 14.6414747,12.5375436 15.9735023,12.5375436 C17.3293548,12.5396923 18.5119355,11.8655385 19.2526728,10.8553846 Z" id="Shape"></path>
                        <path d="M29.8699078,4.44123077 C29.8699078,5.13476923 29.5731797,5.28338462 28.8541014,5.28338462 C27.3942857,5.28338462 26.1683871,5.95538462 25.4059908,7.53415385 L25.4059908,13.2332308 C25.4059908,13.6532308 25.1742396,13.8858462 24.4746544,13.8858462 C24.1779263,13.8858462 23.8400461,13.8427692 23.671106,13.8018462 L23.671106,3.68307692 C23.8400461,3.64 24.1779263,3.59907692 24.4746544,3.59907692 C25.1720737,3.59907692 25.4059908,3.85107692 25.4059908,4.25169231 L25.4059908,5.66030769 C26.4001382,4.16769231 27.901106,3.40953846 29.7832719,3.66153846 C29.8070968,3.81015385 29.8699078,4.12461538 29.8699078,4.44123077 Z" id="Path"></path>
                        <path d="M37.4765438,13.2956923 C36.5885253,13.7156923 35.5727189,13.9892308 34.5569124,13.9892308 C32.5469585,13.9892308 31.3427189,12.8110769 31.3427189,10.8553846 L31.3427189,2.16892308 C31.3427189,1.72738462 31.596129,1.43230769 32.2740553,1.43230769 C32.5707834,1.43230769 32.9086636,1.49476923 33.0776037,1.53784615 L33.0776037,3.72615385 L37.0325346,3.72615385 C37.0541935,3.87261538 37.0953456,4.16769231 37.0953456,4.41969231 C37.0953456,5.02923077 36.8419355,5.24030769 36.4607373,5.24030769 L33.0776037,5.24030769 L33.0776037,10.7304615 C33.0776037,11.9086154 33.6277419,12.4772308 34.7475115,12.4772308 C35.763318,12.4772308 36.3329493,12.0356923 36.8202765,12.0356923 C37.3292627,12.0335385 37.5826728,12.4556923 37.4765438,13.2956923 Z" id="Path"></path>
                        <path d="M38.860553,13.2956923 C38.732765,12.4126154 39.0078341,11.9495385 39.5168203,11.9495385 C40.0041475,11.9495385 41.1867281,12.4750769 42.8371429,12.4750769 C44.5720276,12.4750769 45.2282949,11.8655385 45.2282949,11.0664615 C45.2282949,10.4978462 44.9748848,9.99384615 43.4089401,9.57384615 L41.6112442,9.08923077 C39.6229493,8.56369231 38.8410599,7.57507692 38.8410599,6.35384615 C38.8410599,4.83969231 40.0474654,3.49353846 42.7743318,3.49353846 C44.0002304,3.49353846 45.525023,3.76707692 46.4541935,4.12461538 C46.6231336,4.98615385 46.3480645,5.44923077 45.8195853,5.44923077 C45.3539171,5.44923077 44.2969585,5.00769231 42.7959908,5.00769231 C41.188894,5.00769231 40.5954378,5.55476923 40.5954378,6.26984615 C40.5954378,6.77384615 40.8271889,7.23692308 42.2653456,7.63753846 L44.1063594,8.14153846 C46.1574654,8.71015385 46.9826728,9.65569231 46.9826728,11.0018462 C46.9826728,12.5784615 45.7567742,13.9892308 42.7938249,13.9892308 C41.4812903,13.9892308 39.8525346,13.6747692 38.860553,13.2956923 Z" id="Path"></path>
                    </g>
                </g>
                <path d="M120.262097,0 L43.7379026,0 C42.7777114,0 42,0.775666667 42,1.73333333 L42,24.2666667 C42,25.2243333 42.7777114,26 43.7379026,26 L120.262097,26 C121.222289,26 122,25.2243333 122,24.2666667 L122,1.73333333 C122,0.775666667 121.222289,0 120.262097,0 Z" id="Plinth_1_" fill="url(#linearGradient-1)"></path>
                <path d="M43.2513555,12.6757908 C43.2535279,12.6757908 43.3078373,12.6715328 43.4164562,12.6672749 C48.5562987,12.4884428 120.703091,10.0231144 120.703091,10.0231144 C121.356977,9.99969586 122,9.52493917 122,8.72871046 L122,1.70316302 C122,0.76216545 121.222289,0 120.262099,0 L43.7379679,0 C42.7777775,0 42,0.76216545 42,1.70316302 L42,14 C41.9978944,13.863747 42.0413419,12.7886253 43.2513555,12.6757908 Z" id="p40_8_" fill="url(#linearGradient-2)" opacity="0.4"></path>
                <path d="M25.5378814,24.6303876 C25.842487,24.7885663 26.4602188,24.9792475 27.2377087,24.998749 C28.5732873,25.0290846 29.2996546,24.5090451 29.8407024,23.2934526 L37,7.07688608 C36.7060449,6.91654056 36.0478411,6.73669355 35.5174439,6.72802622 C34.5951065,6.70852474 33.357513,6.89703907 32.5715026,8.81251807 L30.2518135,14.3661071 L25.7040299,6.84720195 C25.4100748,6.75619503 24.692228,6.62835197 24.1724813,6.62835197 C22.5621186,6.62835197 21.6674727,7.22639745 20.7344847,8.25347556 L16.3145078,13.159182 L19.8696603,18.8449477 C20.5278641,19.8828599 21.3926885,20.4115668 22.7964306,20.4115668 C23.718768,20.4115668 24.4856074,20.1927168 24.8392055,20.023704 L20.5576857,13.4712057 L23.5930915,10.1992902 L28.5732873,18.1385606 L25.5378814,24.6303876 Z M16.144099,18.4960878 C16.144099,19.6921788 15.6818653,20.3812312 13.3834773,20.3812312 C13.0788716,20.3812312 12.8147381,20.3617297 12.5591249,20.3205599 L12.5591249,4.46368736 C12.5591249,3.25676224 12.9617156,2 15.2792746,2 C15.5732297,2 15.8693149,2.03033564 16.144099,2.09100692 L16.144099,18.4960878 Z M11.4024755,16.1017391 C11.4024755,18.3357423 9.96891192,19.9608659 7.05066206,20.2815569 C4.93972366,20.5112411 1.8851468,20.242554 0.430282096,20.0713743 C0.38128958,19.8330228 0.342947611,19.5340001 0.342947611,19.2934818 C0.342947611,17.3476671 1.37392055,16.899133 2.34738054,16.899133 C3.3591825,16.899133 4.95037421,17.07898 6.1283247,17.07898 C7.43408175,17.07898 7.82815199,16.6304459 7.82815199,16.2014133 C7.82815199,15.6423708 7.3084053,15.4126867 6.29660334,15.2133382 L3.52746114,14.6737971 C1.22694301,14.2274299 0,12.6109736 0,10.8948431 C0,8.81035124 1.4527346,7.06388509 4.31134139,6.74536087 C6.47127231,6.50484258 9.10408751,6.77569651 10.5483017,6.95554352 C10.5972942,7.20472914 10.6271157,7.44524743 10.6271157,7.70310037 C10.6271157,9.64674818 9.61531376,10.0671135 8.64398388,10.0671135 C7.8984456,10.0671135 6.73753598,9.92843627 5.41260794,9.92843627 C4.06637881,9.92843627 3.50616005,10.3076318 3.50616005,10.767 C3.50616005,11.2567039 4.03655728,11.4560524 4.88221071,11.6055638 L7.52354634,12.103935 C10.2351756,12.6109736 11.4024755,14.1775927 11.4024755,16.1017391 Z" id="Sky_x5F_Logo_1_" fill="url(#linearGradient-3)"></path>
                <path d="M37,7.23136438 L34.3778353,13.3465258 C34.3011514,13.5116798 34.0093264,14.0361553 33.2850892,14.0629371 C33.1146805,14.0696325 30.8908463,14.1499777 30.8908463,14.1499777 C30.4541739,14.1656004 30.3114565,14.5985716 30.3071963,14.6052671 L30.3071963,14.6030353 L32.5693725,9.01904479 C33.3553828,7.04612409 34.5929764,6.85195655 35.5153138,6.87204285 C36.0478411,6.88097009 36.7060449,7.06621039 37,7.23136438 Z M30.1346575,14.5383128 L25.70616,6.99479244 C25.412205,6.90105639 24.6943581,6.76937956 24.1746114,6.76937956 C22.5642487,6.76937956 21.6696028,7.38535932 20.7366149,8.44323761 L16.3145078,13.4960571 L16.6681059,14.0763279 C16.8193437,14.2928136 17.1218192,14.6499033 17.7139896,14.629817 C17.9248705,14.6231216 20.0592401,14.5450082 20.233909,14.5383128 C20.7856074,14.5182265 21.1370754,14.7659574 21.3500864,15.0627883 L21.3500864,15.0627883 L20.5598158,13.8174379 L23.5952216,10.4474037 L25.6337363,13.7951198 L25.6337363,13.7951198 C26.0043754,14.299509 26.5582038,14.3084362 26.6753598,14.3039726 C26.7818653,14.299509 29.4530225,14.2013093 29.5723086,14.1990775 C29.7576281,14.1901503 29.9727691,14.2972772 30.1346575,14.5383128 Z M15.2792746,2 C12.9617156,2 12.5591249,3.29445023 12.5591249,4.53756881 L12.5591249,15.7323315 C12.5591249,15.2815057 12.8892919,14.80613 13.4409902,14.7860437 C13.82654,14.7726529 14.9128958,14.7324803 15.2345423,14.7213212 C15.5881405,14.7079304 16.1355786,14.4557358 16.1419689,13.7661062 L16.1419689,2.09373605 C15.8693149,2.03124535 15.5732297,2 15.2792746,2 Z M7.52354634,12.4069335 L4.88221071,11.893617 C4.03655728,11.7396221 3.50616005,11.5342955 3.50616005,11.0299063 C3.50616005,10.5567624 4.06637881,10.1661955 5.41260794,10.1661955 C6.73753598,10.1661955 7.8984456,10.3090314 8.64398388,10.3090314 C9.61531376,10.3090314 10.6271157,9.87829192 10.6271157,7.87412587 C10.6271157,7.60630859 10.5972942,7.3608094 10.5483017,7.10415117 C9.10408751,6.91891088 6.47127231,6.64216634 4.31134139,6.88766553 C1.4527346,7.22020533 0,9.01681297 0,11.1638149 C0,12.2663294 0.479274611,13.3286713 1.39735176,14.0852552 C2.09602763,14.5650945 2.80322395,14.7503348 3.5189407,14.8797798 C4.10472078,14.9846749 5.46586068,15.0806428 6.47553253,15.042702 C6.78865861,15.0315429 9.12112838,14.9445023 9.62809442,14.9266478 C10.8103051,14.8842434 11.451468,15.9421217 11.3854347,17 C11.3875648,16.9866091 11.3875648,16.9709865 11.3896949,16.9575956 C11.3896949,16.953132 11.3896949,16.9486684 11.391825,16.9442047 C11.4024755,16.8080643 11.4088659,16.6674602 11.4088659,16.5268561 C11.4024755,14.5450082 10.2351756,12.931409 7.52354634,12.4069335 Z" id="s25_2_" fill="url(#linearGradient-4)" opacity="0.25"></path>
                <g id="Group" transform="translate(46.000000, 4.000000)" fill="#FFFFFF">
                    <path d="M0.147368421,14.3503371 C-0.00650154799,13.2935955 0.325077399,12.7406742 0.938390093,12.7406742 C1.52569659,12.7406742 2.95603715,13.3704494 4.94551084,13.3704494 C7.03900929,13.3704494 7.83003096,12.6403371 7.83003096,11.6860674 C7.83003096,11.007191 7.5244582,10.4030337 5.63467492,9.90134831 L3.46532508,9.32280899 C1.06625387,8.69516854 0.121362229,7.51247191 0.121362229,6.05438202 C0.121362229,4.24404494 1.5755418,2.63438202 4.86965944,2.63438202 C6.3498452,2.63438202 8.1876161,2.96101124 9.3123839,3.38797753 C9.51609907,4.41910112 9.18452012,4.97202247 8.54736842,4.97202247 C7.98606811,4.97202247 6.70959752,4.4447191 4.89783282,4.4447191 C2.95820433,4.4447191 2.24303406,5.09797753 2.24303406,5.95404494 C2.24303406,6.55820225 2.5247678,7.1111236 4.26068111,7.58932584 L6.48204334,8.19348315 C8.95913313,8.87235955 9.95386997,10.0038202 9.95386997,11.6134831 C9.95386997,13.4985393 8.47368421,15.1850562 4.9,15.1850562 C3.31145511,15.1807865 1.34582043,14.8029213 0.147368421,14.3503371 Z" id="Path"></path>
                    <path d="M24.7058824,8.89370787 C24.7058824,12.8410112 21.8972136,15.1807865 18.8089783,15.1807865 C16.9712074,15.1807865 15.4650155,14.3268539 14.5721362,13.1185393 L14.5721362,18.1973034 C14.5721362,18.6755056 14.2904025,18.9765169 13.4733746,18.9765169 C13.0659443,18.9765169 12.6823529,18.9252809 12.4786378,18.8761798 L12.4786378,2.85853933 C12.6823529,2.80730337 13.0659443,2.75820225 13.4733746,2.75820225 C14.2904025,2.75820225 14.5721362,3.05921348 14.5721362,3.53741573 L14.5721362,4.69449438 C15.4650155,3.48831461 16.9712074,2.63224719 18.8089783,2.63224719 C21.8972136,2.63224719 24.7058824,4.96988764 24.7058824,8.89370787 Z M22.5863777,8.89370787 C22.5863777,6.25292135 20.798452,4.44258427 18.3993808,4.44258427 C16.7653251,4.44258427 15.2591331,5.37337079 14.569969,6.7311236 L14.569969,11.0819101 C15.2591331,12.4396629 16.7653251,13.3704494 18.3993808,13.3704494 C20.798452,13.3704494 22.5863777,11.5579775 22.5863777,8.89370787 Z" id="Shape"></path>
                    <path d="M26.7213622,8.89370787 C26.7213622,5.29651685 29.4021672,2.63224719 33.0018576,2.63224719 C36.6275542,2.63224719 39.3083591,5.29865169 39.3083591,8.89370787 C39.3083591,12.4652809 36.6275542,15.1807865 33.0018576,15.1807865 C29.4021672,15.1807865 26.7213622,12.4631461 26.7213622,8.89370787 Z M37.1888545,8.89370787 C37.1888545,6.12696629 35.2990712,4.44258427 33.0018576,4.44258427 C30.7306502,4.44258427 28.8408669,6.12696629 28.8408669,8.89370787 C28.8408669,11.6348315 30.7306502,13.3704494 33.0018576,13.3704494 C35.2990712,13.3704494 37.1888545,11.6348315 37.1888545,8.89370787 Z" id="Shape"></path>
                    <path d="M49.4681115,3.76370787 C49.4681115,4.5941573 49.1105263,4.76921348 48.2436533,4.76921348 C46.4817337,4.76921348 45.001548,5.57404494 44.0826625,7.45910112 L44.0826625,14.2734831 C44.0826625,14.7773034 43.8009288,15.0526966 42.9600619,15.0526966 C42.6024768,15.0526966 42.1950464,15.0014607 41.9891641,14.9523596 L41.9891641,2.85853933 C42.1928793,2.80730337 42.6024768,2.75820225 42.9600619,2.75820225 C43.803096,2.75820225 44.0826625,3.05921348 44.0826625,3.53741573 L44.0826625,5.22179775 C45.2832817,3.43707865 47.0950464,2.53191011 49.3662539,2.83292135 C49.3922601,3.00797753 49.4681115,3.3858427 49.4681115,3.76370787 Z" id="Path"></path>
                    <path d="M58.6591331,14.3503371 C57.5863777,14.8541573 56.3619195,15.1807865 55.1352941,15.1807865 C52.7102167,15.1807865 51.25387,13.7717978 51.25387,11.4341573 L51.25387,1.04820225 C51.25387,0.520898876 51.5594427,0.168651685 52.3764706,0.168651685 C52.7340557,0.168651685 53.1414861,0.243370787 53.3473684,0.294606742 L53.3473684,2.90977528 L58.1216718,2.90977528 C58.147678,3.08483146 58.1975232,3.43707865 58.1975232,3.74022472 C58.1975232,4.47033708 57.8919505,4.72011236 57.4325077,4.72011236 L53.3473684,4.72011236 L53.3473684,11.2847191 C53.3473684,12.6937079 54.0105263,13.3725843 55.3650155,13.3725843 C56.5894737,13.3725843 57.2786378,12.8452809 57.8659443,12.8452809 C58.4814241,12.8410112 58.7869969,13.3448315 58.6591331,14.3503371 Z" id="Path"></path>
                    <path d="M60.1133127,14.3503371 C59.9594427,13.2935955 60.2910217,12.7406742 60.9043344,12.7406742 C61.4916409,12.7406742 62.9219814,13.3704494 64.9114551,13.3704494 C67.0049536,13.3704494 67.7959752,12.6403371 67.7959752,11.6860674 C67.7959752,11.007191 67.4904025,10.4030337 65.6006192,9.90134831 L63.4312693,9.32280899 C61.0321981,8.69516854 60.0873065,7.51247191 60.0873065,6.05438202 C60.0873065,4.24404494 61.5414861,2.63438202 64.8356037,2.63438202 C66.3157895,2.63438202 68.1535604,2.96101124 69.2783282,3.38797753 C69.4820433,4.41910112 69.1504644,4.97202247 68.5133127,4.97202247 C67.9520124,4.97202247 66.6755418,4.4447191 64.8616099,4.4447191 C62.9219814,4.4447191 62.2068111,5.09797753 62.2068111,5.95404494 C62.2068111,6.55820225 62.4885449,7.1111236 64.2244582,7.58932584 L66.4458204,8.19348315 C68.9229102,8.87235955 69.9176471,10.0038202 69.9176471,11.6134831 C69.9176471,13.4985393 68.4374613,15.1850562 64.8637771,15.1850562 C63.2795666,15.1807865 61.3139319,14.8029213 60.1133127,14.3503371 Z" id="Path"></path>
                </g>
            </g>
        </g>
    </g>
</svg>